# xmcd CD database file
#
# Track frame offsets:
#	150
#	14502
#	58610
#	86217
#	105205
#	158870
#	177352
#	202432
#	220760
#	246690
#	273410
#	290407
#	315550
#
# Disc length: 4612 seconds
#
# Revision: 0
# Processed by: cddbd v1.5.2PL0 Copyright (c) Steve Scherf et al.
# Submitted via: CDex 1.70beta2
#
DISCID=c512020d
DTITLE=Eddie Harris and David Newman - I Need Some Money - Bigger and Better
DYEAR=2000
DGENRE=Jazz
TTITLE0=I Need Some Money
TTITLE1=Get On Down
TTITLE2=Time To Do Your Thing
TTITLE3=Carnival
TTITLE4=I Don't Want Nobody
TTITLE5=Bumpin
TTITLE6=That's It
TTITLE7=Yesterday
TTITLE8=And I Love Her
TTITLE9=The 13th Floor
TTITLE10=Ain't That Good News
TTITLE11=A Change Is Gonna Come
TTITLE12=For Sylvia
EXTD=YEAR: 2000
EXTT0=
EXTT1=
EXTT2=
EXTT3=
EXTT4=
EXTT5=
EXTT6=
EXTT7=
EXTT8=
EXTT9=
EXTT10=
EXTT11=
EXTT12=
PLAYORDER=
